<svg id="Layer_1" enable-background="new 0 0 512.221 512.221" height="512" viewBox="0 0 512.221 512.221" width="512" xmlns="http://www.w3.org/2000/svg"><g><path d="m193.108 322.597c-.212-3.413-1.247-6.574-2.875-9.329l1.217-.23-18.584-97.397c-2.19-.504-4.308-1.267-6.307-2.273-2.845 5.377-7.461 9.864-13.475 12.475l-67.102 29.145 14.009 73.912-9.988 161.083c-.716 11.543 8.062 21.481 19.605 22.197.442.027.88.041 1.316.041 10.973 0 20.193-8.544 20.881-19.646l10.379-167.386c.059-.95.031-1.883-.035-2.807l9.388-1.779c-.235 1.488-.327 3.02-.23 4.586l10.379 167.386c.688 11.102 9.907 19.646 20.881 19.646.436 0 .875-.014 1.316-.041 11.543-.716 20.321-10.653 19.604-22.197z"/><path d="m158.025 193.411c-3.84-8.84-14.119-12.894-22.959-9.055l-6.473 2.811-.064.08-12.943 5.478.379-.072-26.467 11.495 3.362-7.116.099-.019-.116-.073 34.514-22.15c.651-4.372 2.673-8.993 3.066-9.863-.007-.011-.016-.021-.023-.032 2.652-4.68 6.566-8.677 11.512-11.359 3.925-2.129 8.296-3.349 12.721-3.559 3.503-4.769 8.516-8.238 14.299-9.858 1.135-.318 2.29-.557 3.457-.72l11.597-51.911c1.06-4.742.094-9.711-2.665-13.711l-45.672-66.232c-5.471-7.933-16.338-9.93-24.274-4.459-7.934 5.471-9.93 16.339-4.459 24.273l41.346 59.957-.064.29c2.902 4.805 5.006 10.178 6.101 15.955 4.958 26.161-12.291 51.478-38.453 56.437-2.98.565-6.019.852-9.033.852-2.583 0-5.123-.217-7.609-.614-.206-.033-.414-.061-.619-.097.073.06.14.125.212.186.019.016.037.033.056.049l-21.223 4.023c-5.487 1.04-10.144 4.642-12.529 9.691l-26.972 57.09c-3.104 6.571-1.811 14.378 3.246 19.598 3.358 3.465 7.908 5.309 12.537 5.309 2.344 0 4.708-.472 6.948-1.445l88.11-38.269c8.84-3.841 12.894-14.12 9.055-22.96z"/><path d="m172.204 151.791c-3.683 1.032-6.559 3.319-8.382 6.216-1.58 2.512-4.3 4.065-7.257 4.065-.06 0-.12 0-.181-.002-.123-.002-.247-.004-.371-.004-2.797 0-5.647.675-8.321 2.125-3.52 1.91-6.146 4.949-7.655 8.462 11.428-.816 22.636 5.538 27.46 16.644 1.682 3.873 2.408 7.919 2.289 11.878 2.704 1.98 5.984 3.063 9.343 3.063 2.778 0 5.605-.734 8.196-2.299 6.069-3.666 8.957-11.134 6.932-17.928-.665-2.233-1.759-4.181-3.153-5.804-1.894-2.205-2.313-5.253-1.402-8.013 1.31-3.969.91-8.516-1.67-12.466-2.666-4.082-7.279-6.457-12.029-6.457-1.267-.001-2.545.168-3.799.52z"/><path d="m208.833 163.993c-3.766 1.666-6.132 5.18-6.52 9.003-.188 1.845.079 3.76.883 5.578.75 1.696 1.879 3.104 3.238 4.182 3.115 2.469 7.456 3.175 11.343 1.456 5.583-2.47 8.107-8.998 5.638-14.581-2.47-5.584-8.998-8.107-14.582-5.638z"/><path d="m201.688 158.995c.591-.118 1.179-.296 1.754-.55 4.226-1.869 6.137-6.811 4.268-11.037s-6.811-6.137-11.037-4.268c-1.315.582-2.405 1.461-3.227 2.523-1.821 2.352-2.328 5.603-1.04 8.514 1.614 3.652 5.523 5.569 9.282 4.818z"/><path d="m220.938 140.019c-3.055 1.352-4.436 4.924-3.085 7.979s4.923 4.436 7.978 3.084 4.436-4.923 3.085-7.979c-1.351-3.054-4.923-4.435-7.978-3.084z"/><path d="m106.813 148.727c2.233 0 4.501-.208 6.775-.64 19.626-3.72 32.52-22.645 28.8-42.27-3.289-17.351-18.46-29.44-35.495-29.439-2.233 0-4.501.208-6.775.639-19.625 3.72-32.52 22.645-28.8 42.271 3.289 17.35 18.46 29.439 35.495 29.439z"/><path d="m406.366 22.307h-31.102l-43.645-18.011c-5.306-2.189-11.195 1.672-11.221 7.412-.115 25.083 8.76 46.428 26.624 64.036 4.088 4.029 10.979 2.577 13.168-2.729l13.498-32.708h32.678c27.963 0 51.399 22.681 51.399 51.399v92.822h-11.61v-2.359c0-4.971-4.029-9-9-9s-9 4.029-9 9v22.718c0 4.971 4.029 9 9 9s9-4.029 9-9v-2.359h11.61v272.634c0 10.509-8.55 19.059-19.059 19.059h-88.376c-4.971 0-9 4.029-9 9 0 4.97 4.029 9 9 9h88.376c20.435 0 37.059-16.625 37.059-37.059v-383.456c0-38.718-31.578-69.399-69.399-69.399z"/><path d="m297.601 96.861-8.35 8.619c-2.306 2.38-2.245 6.178.135 8.484 2.373 2.299 6.172 2.253 8.484-.134l8.35-8.619c2.306-2.38 2.245-6.179-.135-8.484-2.381-2.307-6.179-2.245-8.484.134z"/><path d="m275.334 119.845-7.539 7.782c-2.306 2.38-2.245 6.178.135 8.484 2.378 2.305 6.177 2.247 8.484-.134l7.539-7.782c2.306-2.38 2.245-6.179-.135-8.484-2.38-2.308-6.179-2.246-8.484.134z"/><path d="m319.867 73.878-8.35 8.619c-2.306 2.38-2.245 6.178.135 8.484 2.373 2.299 6.172 2.253 8.484-.134l8.35-8.619c2.306-2.38 2.245-6.178-.135-8.484-2.381-2.306-6.18-2.246-8.484.134z"/><path d="m295.538 58.693c1.39 2.983 4.948 4.313 7.973 2.906l10.878-5.066c3.004-1.399 4.305-4.968 2.906-7.972s-4.968-4.305-7.973-2.906l-10.878 5.066c-3.003 1.399-4.304 4.969-2.906 7.972z"/><path d="m251.307 72.676-10.878 5.066c-3.004 1.399-4.305 4.968-2.906 7.972 1.39 2.983 4.948 4.313 7.973 2.906l10.878-5.066c3.004-1.399 4.305-4.968 2.906-7.972s-4.968-4.305-7.973-2.906z"/><path d="m288.287 62.071c-1.399-3.004-4.969-4.305-7.973-2.906l-10.878 5.066c-3.004 1.399-4.305 4.968-2.906 7.972 1.39 2.983 4.948 4.313 7.973 2.906l10.878-5.066c3.004-1.398 4.305-4.968 2.906-7.972z"/><path d="m254.943 34.39 11.897-1.563c3.285-.432 5.599-3.445 5.167-6.73-.433-3.286-3.442-5.597-6.731-5.167l-11.897 1.563c-3.285.432-5.599 3.445-5.167 6.731.428 3.257 3.414 5.598 6.731 5.166z"/><path d="m240.281 30.265c-.433-3.286-3.455-5.597-6.73-5.167l-11.898 1.563c-3.286.432-5.6 3.445-5.168 6.73.437 3.324 3.489 5.598 6.73 5.167l11.898-1.563c3.286-.431 5.599-3.445 5.168-6.73z"/><path d="m286.67 30.22 11.897-1.563c3.285-.432 5.599-3.445 5.167-6.731-.433-3.285-3.441-5.596-6.731-5.167l-11.897 1.563c-3.285.432-5.599 3.445-5.167 6.73.429 3.265 3.42 5.6 6.731 5.168z"/></g></svg>