<svg id="Layer_1" enable-background="new 0 0 512 512" height="512" viewBox="0 0 512 512" width="512" xmlns="http://www.w3.org/2000/svg"><path d="m415 512c-11.046 0-20-8.954-20-20 0-78.299-63.701-142-142-142h-30c-78.299 0-142 63.701-142 142 0 11.046-8.954 20-20 20s-20-8.954-20-20c0-100.355 81.645-182 182-182h30c100.355 0 182 81.645 182 182 0 11.046-8.954 20-20 20zm-90.95-274.664c8.37-7.208 9.313-19.836 2.105-28.206-7.206-8.371-19.835-9.312-28.205-2.105-17.207 14.815-39.208 22.975-61.95 22.975-52.383 0-95-42.617-95-95s42.617-95 95-95c21.896 0 43.26 7.625 60.157 21.47 8.545 7.001 21.146 5.749 28.146-2.795s5.749-21.146-2.795-28.146c-24.028-19.687-54.395-30.529-85.508-30.529-74.439 0-135 60.561-135 135s60.561 135 135 135c32.317 0 63.588-11.601 88.05-32.664zm76.95-34.336c-38.598 0-70-31.508-70-70.236 0-6.63 0-26.805 39.293-76.83 7.456-9.491 18.647-14.934 30.707-14.934s23.251 5.443 30.706 14.934h.001c39.293 50.025 39.293 70.2 39.293 76.83 0 38.728-31.402 70.236-70 70.236zm0-121.4c-23.704 30.351-30 46.724-30 51.165 0 16.672 13.458 30.235 30 30.235s30-13.563 30-30.236c0-4.441-6.296-20.813-30-51.164z"/></svg>